<?xml version="1.0" encoding="UTF-8" standalone="no"?>
<!DOCTYPE svg PUBLIC "-//W3C//DTD SVG 1.1//EN"
 "http://www.w3.org/Graphics/SVG/1.1/DTD/svg11.dtd">
<!-- Generated by graphviz version 14.1.3 (20260303.0454)
 -->
<!-- Pages: 1 -->
<svg width="190pt" height="132pt"
 viewBox="0.00 0.00 190.00 132.00" xmlns="http://www.w3.org/2000/svg" xmlns:xlink="http://www.w3.org/1999/xlink">
<g id="graph0" class="graph" transform="scale(1 1) rotate(0) translate(4 128)">
<polygon fill="white" stroke="none" points="-4,4 -4,-128 186.38,-128 186.38,4 -4,4"/>
<g id="clust3" class="cluster">
<title>cluster_associated</title>
</g>
<!-- its&#45;core_Code -->
<g id="node1" class="node">
<title>its&#45;core_Code</title>
<g id="a_node1"><a xlink:href="https://w3id.org/itsdata/core/v1/Code" xlink:title="&lt;TABLE&gt;">
<polygon fill="lightgray" stroke="none" points="10.75,-97.88 10.75,-114.12 84,-114.12 84,-97.88 10.75,-97.88"/>
<text xml:space="preserve" text-anchor="start" x="11.75" y="-101.88" font-family="Arial" font-size="12.00">its&#45;core:Code</text>
<polygon fill="none" stroke="black" points="9.75,-96.88 9.75,-115.12 85,-115.12 85,-96.88 9.75,-96.88"/>
</a>
</g>
</g>
<!-- GoodsTypeCode -->
<g id="node2" class="node">
<title>GoodsTypeCode</title>
<g id="a_node2"><a xlink:href="../GoodsTypeCode" xlink:title="&lt;TABLE&gt;">
<polygon fill="lightgray" stroke="none" points="1,-25.88 1,-42.12 93.75,-42.12 93.75,-25.88 1,-25.88"/>
<text xml:space="preserve" text-anchor="start" x="2" y="-29.88" font-family="Arial" font-size="12.00">GoodsTypeCode</text>
<polygon fill="none" stroke="black" points="0,-24.88 0,-43.12 94.75,-43.12 94.75,-24.88 0,-24.88"/>
</a>
</g>
</g>
<!-- GoodsTypeCode&#45;&gt;its&#45;core_Code -->
<g id="edge1" class="edge">
<title>GoodsTypeCode&#45;&gt;its&#45;core_Code</title>
<path fill="none" stroke="black" d="M47.38,-51.79C47.38,-59.25 47.38,-68.24 47.38,-76.69"/>
<polygon fill="none" stroke="black" points="43.88,-76.54 47.38,-86.54 50.88,-76.54 43.88,-76.54"/>
</g>
<!-- Invis -->
</g>
</svg>
