<?xml version="1.0" encoding="UTF-8" standalone="no"?>
<!DOCTYPE svg PUBLIC "-//W3C//DTD SVG 1.1//EN"
 "http://www.w3.org/Graphics/SVG/1.1/DTD/svg11.dtd">
<!-- Generated by graphviz version 14.1.3 (20260303.0454)
 -->
<!-- Pages: 1 -->
<svg width="520pt" height="611pt"
 viewBox="0.00 0.00 520.00 611.00" xmlns="http://www.w3.org/2000/svg" xmlns:xlink="http://www.w3.org/1999/xlink">
<g id="graph0" class="graph" transform="scale(1 1) rotate(0) translate(4 606.75)">
<polygon fill="white" stroke="none" points="-4,4 -4,-606.75 516.25,-606.75 516.25,4 -4,4"/>
<g id="clust3" class="cluster">
<title>cluster_associated</title>
</g>
<!-- VehicleCharacteristic -->
<g id="node1" class="node">
<title>VehicleCharacteristic</title>
<g id="a_node1"><a xlink:href="../VehicleCharacteristic" xlink:title="&lt;TABLE&gt;">
<polygon fill="lightgray" stroke="none" points="115.5,-585.5 115.5,-601.75 330.5,-601.75 330.5,-585.5 115.5,-585.5"/>
<text xml:space="preserve" text-anchor="start" x="166.38" y="-589.5" font-family="Arial" font-size="12.00">VehicleCharacteristic</text>
<text xml:space="preserve" text-anchor="start" x="116.5" y="-573.25" font-family="Arial" font-size="12.00">ofVehicleType</text>
<text xml:space="preserve" text-anchor="start" x="116.5" y="-557" font-family="Arial" font-size="12.00">yearOfFirstRegistration : xsd:gYear [0..1]</text>
<polygon fill="none" stroke="black" points="114.5,-552 114.5,-602.75 331.5,-602.75 331.5,-552 114.5,-552"/>
</a>
</g>
</g>
<!-- Invis -->
<!-- VehicleCharacteristic&#45;&gt;Invis -->
<!-- FuelTypeCode -->
<g id="node3" class="node">
<title>FuelTypeCode</title>
<g id="a_node3"><a xlink:href="../FuelTypeCode" xlink:title="&lt;TABLE&gt;">
<polygon fill="lightgray" stroke="none" points="36.25,-370.38 36.25,-386.62 117.75,-386.62 117.75,-370.38 36.25,-370.38"/>
<text xml:space="preserve" text-anchor="start" x="37.25" y="-374.38" font-family="Arial" font-size="12.00">FuelTypeCode</text>
<polygon fill="none" stroke="black" points="35.25,-369.38 35.25,-387.62 118.75,-387.62 118.75,-369.38 35.25,-369.38"/>
</a>
</g>
</g>
<!-- VehicleCharacteristic&#45;&gt;FuelTypeCode -->
<g id="edge7" class="edge">
<title>VehicleCharacteristic&#45;&gt;FuelTypeCode</title>
<path fill="none" stroke="black" d="M157.21,-552.02C143.57,-544.46 130.36,-534.89 120.5,-523 92.77,-489.57 82.71,-438.76 79.06,-407.42"/>
<polygon fill="black" stroke="black" points="82.55,-407.17 78.07,-397.57 75.59,-407.87 82.55,-407.17"/>
<polygon fill="white" stroke="none" points="120.5,-486.25 120.5,-507.75 190,-507.75 190,-486.25 120.5,-486.25"/>
<text xml:space="preserve" text-anchor="start" x="124.5" y="-493.25" font-family="Arial" font-size="11.00">hasFuelType</text>
</g>
<!-- GoodsTypeCode -->
<g id="node4" class="node">
<title>GoodsTypeCode</title>
<g id="a_node4"><a xlink:href="../GoodsTypeCode" xlink:title="&lt;TABLE&gt;">
<polygon fill="lightgray" stroke="none" points="43.62,-248.38 43.62,-264.62 136.38,-264.62 136.38,-248.38 43.62,-248.38"/>
<text xml:space="preserve" text-anchor="start" x="44.62" y="-252.38" font-family="Arial" font-size="12.00">GoodsTypeCode</text>
<polygon fill="none" stroke="black" points="42.62,-247.38 42.62,-265.62 137.38,-265.62 137.38,-247.38 42.62,-247.38"/>
</a>
</g>
</g>
<!-- VehicleCharacteristic&#45;&gt;GoodsTypeCode -->
<g id="edge8" class="edge">
<title>VehicleCharacteristic&#45;&gt;GoodsTypeCode</title>
<path fill="none" stroke="black" d="M220.41,-552.35C216.92,-530.73 208.78,-499.31 190,-479 176.21,-464.09 160.74,-476.82 148,-461 118.48,-424.34 140.89,-402.27 128,-357 120.9,-332.06 110.17,-304.58 101.92,-284.83"/>
<polygon fill="black" stroke="black" points="105.24,-283.68 98.11,-275.84 98.79,-286.41 105.24,-283.68"/>
<polygon fill="white" stroke="none" points="148,-418 148,-461 228,-461 228,-418 148,-418"/>
<text xml:space="preserve" text-anchor="start" x="152" y="-446.5" font-family="Arial" font-size="11.00">hasGoodsType</text>
<text xml:space="preserve" text-anchor="start" x="179" y="-425" font-family="Arial" font-size="11.00">0..1</text>
</g>
<!-- LoadTypeCode -->
<g id="node5" class="node">
<title>LoadTypeCode</title>
<g id="a_node5"><a xlink:href="../LoadTypeCode" xlink:title="&lt;TABLE&gt;">
<polygon fill="lightgray" stroke="none" points="47.75,-171.88 47.75,-188.12 132.25,-188.12 132.25,-171.88 47.75,-171.88"/>
<text xml:space="preserve" text-anchor="start" x="48.75" y="-175.88" font-family="Arial" font-size="12.00">LoadTypeCode</text>
<polygon fill="none" stroke="black" points="46.75,-170.88 46.75,-189.12 133.25,-189.12 133.25,-170.88 46.75,-170.88"/>
</a>
</g>
</g>
<!-- VehicleCharacteristic&#45;&gt;LoadTypeCode -->
<g id="edge9" class="edge">
<title>VehicleCharacteristic&#45;&gt;LoadTypeCode</title>
<path fill="none" stroke="black" d="M230.15,-552.01C238.23,-519.76 247.86,-461.86 228,-418 223,-406.95 214.38,-409.98 207.5,-400 163.08,-335.56 188.9,-300.46 146,-235 138.91,-224.19 129.3,-213.91 120.04,-205.29"/>
<polygon fill="black" stroke="black" points="122.63,-202.91 112.84,-198.86 117.97,-208.13 122.63,-202.91"/>
<polygon fill="white" stroke="none" points="207.5,-357 207.5,-400 280,-400 280,-357 207.5,-357"/>
<text xml:space="preserve" text-anchor="start" x="211.5" y="-385.5" font-family="Arial" font-size="11.00">hasLoadType</text>
<text xml:space="preserve" text-anchor="start" x="234.75" y="-364" font-family="Arial" font-size="11.00">0..1</text>
</g>
<!-- VehicleEquipmentCode -->
<g id="node6" class="node">
<title>VehicleEquipmentCode</title>
<g id="a_node6"><a xlink:href="../VehicleEquipmentCode" xlink:title="&lt;TABLE&gt;">
<polygon fill="lightgray" stroke="none" points="16.62,-98.88 16.62,-115.12 145.38,-115.12 145.38,-98.88 16.62,-98.88"/>
<text xml:space="preserve" text-anchor="start" x="17.62" y="-102.88" font-family="Arial" font-size="12.00">VehicleEquipmentCode</text>
<polygon fill="none" stroke="black" points="15.62,-97.88 15.62,-116.12 146.38,-116.12 146.38,-97.88 15.62,-97.88"/>
</a>
</g>
</g>
<!-- VehicleCharacteristic&#45;&gt;VehicleEquipmentCode -->
<g id="edge10" class="edge">
<title>VehicleCharacteristic&#45;&gt;VehicleEquipmentCode</title>
<path fill="none" stroke="black" d="M261.82,-552.17C278.4,-538.63 294,-520.03 294,-498 294,-498 294,-498 294,-179 294,-149.32 218.64,-129.83 157.57,-118.91"/>
<polygon fill="black" stroke="black" points="158.3,-115.48 147.85,-117.22 157.1,-122.38 158.3,-115.48"/>
<polygon fill="white" stroke="none" points="294,-296 294,-339 405.5,-339 405.5,-296 294,-296"/>
<text xml:space="preserve" text-anchor="start" x="298" y="-324.5" font-family="Arial" font-size="11.00">hasVehicleEquipment</text>
<text xml:space="preserve" text-anchor="start" x="340.75" y="-303" font-family="Arial" font-size="11.00">0..1</text>
</g>
<!-- VehicleUsageCode -->
<g id="node7" class="node">
<title>VehicleUsageCode</title>
<g id="a_node7"><a xlink:href="../VehicleUsageCode" xlink:title="&lt;TABLE&gt;">
<polygon fill="lightgray" stroke="none" points="33.88,-25.88 33.88,-42.12 140.12,-42.12 140.12,-25.88 33.88,-25.88"/>
<text xml:space="preserve" text-anchor="start" x="34.88" y="-29.88" font-family="Arial" font-size="12.00">VehicleUsageCode</text>
<polygon fill="none" stroke="black" points="32.88,-24.88 32.88,-43.12 141.12,-43.12 141.12,-24.88 32.88,-24.88"/>
</a>
</g>
</g>
<!-- VehicleCharacteristic&#45;&gt;VehicleUsageCode -->
<g id="edge11" class="edge">
<title>VehicleCharacteristic&#45;&gt;VehicleUsageCode</title>
<path fill="none" stroke="black" d="M331.27,-552.3C377.49,-538.79 421,-520.18 421,-498 421,-498 421,-498 421,-106 421,-51.67 249.77,-38.74 152.51,-35.78"/>
<polygon fill="black" stroke="black" points="152.64,-32.28 142.55,-35.51 152.45,-39.28 152.64,-32.28"/>
<polygon fill="white" stroke="none" points="421,-235 421,-278 512.25,-278 512.25,-235 421,-235"/>
<text xml:space="preserve" text-anchor="start" x="425" y="-263.5" font-family="Arial" font-size="11.00">hasVehicleUsage</text>
<text xml:space="preserve" text-anchor="start" x="457.62" y="-242" font-family="Arial" font-size="11.00">0..1</text>
</g>
<!-- Invis&#45;&gt;FuelTypeCode -->
<!-- FuelTypeCode&#45;&gt;GoodsTypeCode -->
<!-- GoodsTypeCode&#45;&gt;LoadTypeCode -->
<!-- LoadTypeCode&#45;&gt;VehicleEquipmentCode -->
<!-- VehicleEquipmentCode&#45;&gt;VehicleUsageCode -->
</g>
</svg>
